<svg xmlns="http://www.w3.org/2000/svg" viewBox="0 0 240 240" fill="none" stroke="white" stroke-width="20">
  <path d="M240 120c0 66.3-53.7 120-120 120S0 186.3 0 120 53.7 0 120 0s120 53.7 120 120z"/>
  <path d="M98 175c-3.9 0-3.2-1.5-4.6-5.2L82 132.2 152.8 88l8.3 2.2-6.9 18.8L98 175z"/>
  <path d="M98 175c3 0 4.3-1.4 6-3 2.6-2.5 36-35 36-35l-20.5-5-19 12-2.5 30v1z"/>
  <path d="M100 144.4l48.4 35.7c5.5 3 9.5 1.5 10.9-5.1L179 82.2c2-8.1-3.1-11.7-8.4-9.3L55 117.5c-7.9 3.2-7.8 7.6-1.4 9.5l29.7 9.3L152 93c3.2-2 6.2-.9 3.8 1.3L100 144.4z"/>
</svg>